<?xml version="1.0" standalone="no"?>
<!DOCTYPE svg PUBLIC "-//W3C//DTD SVG 20010904//EN"
 "http://www.w3.org/TR/2001/REC-SVG-20010904/DTD/svg10.dtd">
<svg version="1.0" xmlns="http://www.w3.org/2000/svg"
 width="403.000000pt" height="403.000000pt" viewBox="0 0 403.000000 403.000000"
 preserveAspectRatio="xMidYMid meet">
<metadata>
Created by potrace 1.16, written by Peter Selinger 2001-2019
</metadata>
<g transform="translate(0.000000,403.000000) scale(0.100000,-0.100000)"
fill="#000000" stroke="none">
<path d="M1755 4019 c-865 -118 -1537 -749 -1722 -1614 -26 -123 -27 -144 -27
-390 0 -246 1 -267 27 -390 91 -425 287 -782 589 -1071 277 -264 609 -437
1003 -521 123 -26 144 -27 390 -27 246 0 267 1 390 27 821 175 1417 771 1592
1592 26 123 27 144 27 390 0 246 -1 267 -27 390 -175 819 -773 1419 -1587
1590 -110 24 -153 27 -355 30 -126 2 -261 -1 -300 -6z m605 -1430 l0 -340 56
61 c119 127 274 187 464 177 169 -8 301 -67 411 -185 72 -77 111 -143 146
-247 24 -72 27 -95 27 -230 1 -170 -11 -233 -69 -350 -73 -150 -204 -266 -355
-315 -63 -21 -94 -25 -200 -25 -104 0 -136 4 -192 23 -88 31 -171 85 -235 156
l-53 58 0 -111 0 -111 -115 0 -115 0 0 890 0 890 115 0 115 0 0 -341z m-1318
-176 c111 -227 204 -413 208 -413 3 0 97 186 209 413 l202 412 119 3 c84 2
120 -1 120 -9 0 -6 -121 -243 -270 -526 l-270 -515 0 -314 0 -314 -110 0 -110
0 0 316 0 317 -270 513 c-148 282 -270 518 -270 524 0 7 39 10 120 8 l121 -3
201 -412z"/>
<path d="M2703 2285 c-86 -19 -155 -59 -218 -126 -90 -98 -125 -195 -125 -350
0 -208 90 -363 258 -442 63 -30 73 -32 183 -32 113 0 116 1 191 38 161 79 247
233 248 439 0 251 -130 427 -349 474 -80 17 -107 16 -188 -1z"/>
</g>
</svg>
